<svg width="21" height="21" viewBox="0 0 21 21" fill="none" xmlns="http://www.w3.org/2000/svg">
  <path fill-rule="evenodd" clip-rule="evenodd"
    d="M16.7658 2C16.0742 2 15.5135 2.56065 15.5135 3.25225C15.5135 3.94385 16.0742 4.5045 16.7658 4.5045C17.4574 4.5045 18.018 3.94385 18.018 3.25225C18.018 2.56065 17.4574 2 16.7658 2ZM13.5135 3.25225C13.5135 1.45608 14.9696 0 16.7658 0C18.5619 0 20.018 1.45608 20.018 3.25225C20.018 4.67641 19.1026 5.88676 17.8281 6.32704C17.7823 6.81816 17.6552 7.39522 17.3626 7.97939C16.5115 9.67857 14.5033 11.009 10.509 11.009C8.73905 11.009 7.56183 11.3317 6.78034 11.75C6.01067 12.162 5.57746 12.6914 5.32396 13.203C5.18301 13.4875 5.09332 13.7759 5.03818 14.0473C5.92147 14.6288 6.5045 15.6292 6.5045 16.7658C6.5045 18.5619 5.04842 20.018 3.25225 20.018C1.45608 20.018 0 18.5619 0 16.7658C0 15.0183 1.3781 13.5928 3.10674 13.5167C3.19359 13.1354 3.32787 12.7268 3.53189 12.315C3.9597 11.4516 4.67963 10.606 5.83648 9.98677C6.98151 9.37386 8.50419 9.00904 10.509 9.00904C14.0643 9.00904 15.1845 7.86201 15.5744 7.08368C15.696 6.84087 15.7681 6.59397 15.8079 6.36116C14.4792 5.95228 13.5135 4.71504 13.5135 3.25225ZM3.00222 15.5385C2.43042 15.6543 2 16.1598 2 16.7658C2 17.4574 2.56065 18.018 3.25225 18.018C3.94385 18.018 4.5045 17.4574 4.5045 16.7658C4.5045 16.2128 4.14613 15.7436 3.64898 15.5776C3.0267 15.6962 3.0266 15.6957 3.02649 15.6951L3.02621 15.6936L3.02559 15.6903L3.02409 15.6821L3.02017 15.6595C3.01718 15.6418 3.0135 15.6188 3.00943 15.5908C3.00713 15.5749 3.00471 15.5575 3.00222 15.5385Z"
  />
</svg>
