<svg width="16" height="17" viewBox="0 0 16 17"  xmlns="http://www.w3.org/2000/svg">
  <path
    d="M14.1875 0.375H1.8125C1.34375 0.375 0.945312 0.539063 0.617188 0.867188C0.289063 1.19531 0.125 1.59375 0.125 2.0625V14.4375C0.125 14.9062 0.289063 15.3047 0.617188 15.6328C0.945312 15.9609 1.34375 16.125 1.8125 16.125H14.1875C14.6562 16.125 15.0547 15.9609 15.3828 15.6328C15.7109 15.3047 15.875 14.9062 15.875 14.4375V2.0625C15.875 1.59375 15.7109 1.19531 15.3828 0.867188C15.0547 0.539063 14.6562 0.375 14.1875 0.375ZM8.70312 12.6445C8.70312 13.3945 8.50391 13.957 8.10547 14.332C7.70703 14.707 7.16797 14.8945 6.48828 14.8945C5.43359 14.8945 4.69531 14.4375 4.27344 13.5234L5.46875 12.8203C5.60938 13.0781 5.73828 13.2539 5.85547 13.3477C5.99609 13.4883 6.18359 13.5586 6.41797 13.5586C6.67578 13.5586 6.875 13.5 7.01562 13.3828C7.15625 13.2422 7.22656 12.9961 7.22656 12.6445V7.61719H8.70312V12.6445ZM12.1836 14.8945C11.5273 14.8945 10.9648 14.7539 10.4961 14.4727C10.0742 14.1914 9.74609 13.8281 9.51172 13.3828L10.707 12.6797C11.082 13.2891 11.5625 13.5938 12.1484 13.5938C12.4531 13.5938 12.6992 13.5234 12.8867 13.3828C13.0742 13.2422 13.168 13.0664 13.168 12.8555C13.168 12.6211 13.0742 12.4336 12.8867 12.293C12.7695 12.1992 12.5 12.0586 12.0781 11.8711L11.7266 11.6953C11.1406 11.4609 10.707 11.1914 10.4258 10.8867C10.0977 10.5117 9.93359 10.043 9.93359 9.48047C9.93359 8.91797 10.1328 8.44922 10.5312 8.07422C10.9297 7.69922 11.457 7.51172 12.1133 7.51172C12.6055 7.51172 13.0156 7.60547 13.3438 7.79297C13.6953 7.98047 13.9883 8.28516 14.2227 8.70703L13.0625 9.44531C12.9453 9.21094 12.8047 9.04688 12.6406 8.95312C12.5 8.85938 12.3242 8.8125 12.1133 8.8125C11.9023 8.8125 11.7266 8.87109 11.5859 8.98828C11.4688 9.10547 11.4102 9.26953 11.4102 9.48047C11.4102 9.66797 11.4688 9.82031 11.5859 9.9375C11.7266 10.0547 11.9727 10.1953 12.3242 10.3594L12.6758 10.5C13.3555 10.8047 13.8477 11.1094 14.1523 11.4141C14.4805 11.7656 14.6445 12.2344 14.6445 12.8203C14.6445 13.4766 14.4102 13.9922 13.9414 14.3672C13.4961 14.7188 12.9102 14.8945 12.1836 14.8945Z"
  />
</svg>
