<svg width="18" height="17" viewBox="0 0 18 17" xmlns="http://www.w3.org/2000/svg">
  <path
    d="M16.3125 0.375H1.6875C1.21875 0.375 0.820312 0.539063 0.492188 0.867188C0.164063 1.19531 0 1.59375 0 2.0625V14.4375C0 14.9062 0.164063 15.3047 0.492188 15.6328C0.820312 15.9609 1.21875 16.125 1.6875 16.125H16.3125C16.7812 16.125 17.1797 15.9609 17.5078 15.6328C17.8359 15.3047 18 14.9062 18 14.4375V2.0625C18 1.59375 17.8359 1.19531 17.5078 0.867188C17.1797 0.539063 16.7812 0.375 16.3125 0.375ZM7.875 13.875H2.25V10.5H7.875V13.875ZM7.875 8.25H2.25V4.875H7.875V8.25ZM15.75 13.875H10.125V10.5H15.75V13.875ZM15.75 8.25H10.125V4.875H15.75V8.25Z"
     />
</svg>
