<svg width="503" height="237" viewBox="0 0 503 237" fill="none" xmlns="http://www.w3.org/2000/svg">
<path d="M214.438 35.2576C140.549 27.4646 132.599 39.7837 79.866 59.7246C46.0792 79.4362 29.2633 106.545 29.2637 130.4C29.2644 179.821 94.1242 219.06 240.007 210.351C385.891 201.641 367.719 183.273 419.82 182.814C471.921 182.356 505.392 144.308 502.866 123.221C500.34 102.134 477.289 95.4872 428.03 93.4244C378.771 91.3615 288.327 43.0505 214.438 35.2576Z" fill="url(#paint0_linear)"/>
<path d="M318.616 145.86C315.936 144.449 309.038 143.862 305.924 143.744L297.463 189.046C301.458 189.869 309.872 191.479 311.565 191.338C318.616 190.75 346.114 178.117 346.995 177.06C347.877 176.002 347.701 167.717 346.995 166.836C346.29 165.955 321.965 147.622 318.616 145.86Z" fill="#8CBBEE"/>
<path d="M311.211 164.192C311.211 177.237 302.45 189.223 298.167 189.223C293.883 189.223 292.498 170.009 294.113 162.782C297.814 146.212 303.103 143.744 305.923 143.744C308.743 143.744 311.211 151.147 311.211 164.192Z" fill="#DBEBFF"/>
<ellipse cx="303.632" cy="158.755" rx="1.58645" ry="4.23054" transform="rotate(9.5 303.632 158.755)" fill="#340C0C"/>
<ellipse cx="300.782" cy="172.708" rx="1.58645" ry="4.23054" transform="rotate(9.5 300.782 172.708)" fill="#340C0C"/>
<path d="M292.95 44.5405C270.68 52.6388 270.68 62.7616 257.52 74.909C244.361 87.0564 165.403 86.0442 133.009 117.425C100.616 148.806 110.739 169.937 92.5181 184.742C74.297 199.546 65.6916 204.481 32.7924 204.481C-2.13139 204.481 -11.4571 218.559 32.7914 223.715C84.9224 229.788 123.394 236.874 241.831 231.813C360.268 226.752 464.533 198.408 461.496 177.15C458.459 155.892 435.243 157.309 424.311 171.076C413.378 184.843 365.429 176.812 342.822 171.076" stroke="#8CBBEE" stroke-width="5" stroke-linecap="round" stroke-linejoin="round"/>
<path d="M170.703 83.627L184.875 93.7498L173.739 154.487L161.086 160.561L170.703 83.627Z" fill="white"/>
<path d="M258.265 194.978C256.241 194.168 251.686 195.316 249.661 195.99L241.057 210.162C254.891 210.837 282.459 211.782 282.054 210.162C281.548 208.138 272.437 202.57 268.388 201.052C264.339 199.533 260.796 195.99 258.265 194.978Z" fill="#1C2541"/>
<path d="M138.816 194.978C140.84 194.168 148.433 192.279 151.976 191.435C152.313 193.966 152.786 199.635 151.976 202.064C150.963 205.101 146.408 210.162 143.878 210.162H115.027C112.496 210.162 111.99 209.15 114.015 206.619C116.039 204.089 136.285 195.99 138.816 194.978Z" fill="#1C2541"/>
<path d="M254.572 73.9323C254.403 72.2451 254.369 68.6684 255.584 67.8586L262.67 58.2419C267.225 56.2173 267.731 60.2664 270.262 63.8094C272.792 67.3524 268.237 70.3893 266.213 71.4016C264.593 72.2114 260.139 72.7513 258.114 72.92L254.572 73.9323Z" fill="#FF2D84"/>
<path fill-rule="evenodd" clip-rule="evenodd" d="M173.739 132.216C191.285 121.925 227.997 101.848 234.476 103.873C234.732 103.953 234.983 104.031 235.23 104.107C242.766 106.449 245.691 107.358 248.142 121.081C250.166 132.419 256.071 170.346 258.771 187.892L245.611 190.929C247.467 192.279 251.077 196.395 250.672 202.064C250.166 209.15 245.611 211.175 242.068 211.175H150.456L151.975 191.941C149.613 192.11 143.37 191.536 137.297 187.892C131.223 184.248 128.017 174.901 127.174 170.683L173.739 132.216ZM190.947 162.585L225.365 137.784L237.512 185.868L190.947 162.585Z" fill="#FBBC05"/>
<path d="M192.974 5.17489C193.379 10.4388 188.757 13.4419 186.395 14.2854V30.9881C186.226 33.8562 185.179 40.1999 182.344 42.6293C179.51 45.0588 171.716 44.3165 168.173 43.6416L159.062 22.3837C158.725 20.3591 157.949 15.5001 157.544 12.2608C157.038 8.21171 160.581 5.17489 164.63 4.66871C168.68 4.16254 176.272 2.64418 180.321 1.12575C184.37 -0.392674 192.468 -1.40496 192.974 5.17489Z" fill="#1C2541"/>
<path d="M210.182 84.639L257.759 65.4056L262.314 71.9855C246.455 82.4457 213.826 103.771 210.182 105.391C207.683 106.501 196.795 100.696 186.878 94.7619L188.924 123.612L177.789 131.204L183.356 92.6253C180.127 90.6407 177.138 88.7346 174.752 87.1697L163.617 176.757L115.533 179.288C121.438 143.689 133.754 71.0744 135.779 65.4056C138.31 58.3197 154 47.6907 158.555 47.6907C162.199 47.6907 194.491 72.3229 210.182 84.639Z" fill="#1471EB"/>
<path d="M174.245 44.0345L175.764 58.826L158.555 48.197C159.567 45.4976 161.693 39.1877 162.098 35.5435C162.604 30.9882 158.555 27.4452 158.555 24.9145C158.555 22.3838 161.085 19.8531 164.628 20.3592C168.171 20.8654 167.159 26.4329 167.665 33.5189C168.07 39.1877 172.221 43.1909 174.245 44.0345Z" fill="#FF2D84"/>
<path d="M187.405 26.4329C186.595 24.8133 186.392 17.6598 186.392 14.2855C183.524 14.623 177.181 15.2978 174.751 15.2978C171.714 15.2978 169.69 15.2978 169.69 20.3592C169.69 25.4207 172.727 28.9636 174.245 29.9759C175.764 30.9882 186.899 30.9882 188.923 30.9882C190.948 30.9882 188.417 28.4575 187.405 26.4329Z" fill="#FF2D84"/>
<path d="M324.113 34.0596C323.494 33.3172 315.142 34.6783 311.43 35.6063L313.595 41.0198C313.595 41.0198 324.731 39.7824 325.195 39.1638C325.659 38.5451 324.731 34.8021 324.113 34.0596Z" fill="#1C2541"/>
<path d="M327.37 46.5651C326.751 45.8227 320.369 47.0755 316.657 48.0035L315.729 53.8809C315.729 53.8809 327.947 52.8025 328.411 52.1839C328.875 51.5652 327.988 47.3075 327.37 46.5651Z" fill="#1C2541"/>
<mask id="mask0" mask-type="alpha" maskUnits="userSpaceOnUse" x="276" y="26" width="43" height="42">
<path d="M300.536 27.0996C302.702 25.7076 307.651 26.4809 310.126 27.0996C312.91 27.0996 316.158 36.9984 318.014 45.6599C320.334 56.4868 316.777 63.2923 315.694 64.9936C314.611 66.695 308.889 67.9324 304.558 67.3137C300.227 66.695 283.832 61.4362 280.893 59.7349C277.955 58.0335 277.336 56.1775 276.562 53.5481C275.836 51.0785 276.408 45.0413 277.954 42.8759C279.501 40.7105 298.371 28.4916 300.536 27.0996Z" fill="white"/>
</mask>
<g mask="url(#mask0)">
<path d="M300.536 27.0996C302.701 25.7076 307.651 26.4809 310.125 27.0996C312.909 27.0996 316.158 36.9984 318.014 45.6599C320.334 56.4868 316.776 63.2923 315.694 64.9936C314.611 66.695 308.888 67.9324 304.557 67.3137C300.227 66.695 283.832 61.4362 280.893 59.7349C277.954 58.0335 277.335 56.1775 276.562 53.5481C275.835 51.0785 275.714 46.7059 277.261 44.5406C278.808 42.3752 298.37 28.4916 300.536 27.0996Z" fill="#8CBBEE"/>
<path d="M312.136 26.4808C311.394 24.5011 304.403 25.6559 301 26.4808C301.567 28.4915 307.496 37.9067 308.644 48.5896C310.171 62.8092 304.144 65.967 306.619 67.823C309.094 69.6791 312.136 66.5403 315.384 65.6123C318.632 64.6843 319.251 55.2494 319.251 49.372C319.251 43.4945 313.064 28.9555 312.136 26.4808Z" fill="#DBEBFF"/>
</g>
<defs>
<linearGradient id="paint0_linear" x1="28.6944" y1="124.151" x2="559.843" y2="130.969" gradientUnits="userSpaceOnUse">
<stop stop-color="#DFEEFF"/>
<stop offset="1" stop-color="#DFEEFF" stop-opacity="0"/>
</linearGradient>
</defs>
</svg>
