<svg width="21" height="21" viewBox="0 0 21 21" fill="none" xmlns="http://www.w3.org/2000/svg">
  <path fill-rule="evenodd" clip-rule="evenodd"
    d="M16.8771 2.05151C16.1855 2.05151 15.6248 2.61217 15.6248 3.30377C15.6248 3.99537 16.1855 4.55602 16.8771 4.55602C17.5687 4.55602 18.1293 3.99537 18.1293 3.30377C18.1293 2.61217 17.5687 2.05151 16.8771 2.05151ZM13.6248 3.30377C13.6248 1.5076 15.0809 0.0515137 16.8771 0.0515137C18.6733 0.0515137 20.1293 1.5076 20.1293 3.30377C20.1293 4.72792 19.2139 5.93827 17.9394 6.37855C17.8937 6.86968 17.7665 7.44674 17.4739 8.03091C16.6228 9.73009 14.6146 11.0606 10.6203 11.0606C8.85037 11.0606 7.67316 11.3832 6.89167 11.8016C6.122 12.2136 5.68878 12.7429 5.43529 13.2545C5.29433 13.539 5.20465 13.8274 5.14951 14.0988C6.0328 14.6803 6.61583 15.6807 6.61583 16.8173C6.61583 18.6134 5.15975 20.0695 3.36358 20.0695C1.56741 20.0695 0.111328 18.6134 0.111328 16.8173C0.111328 15.0699 1.48943 13.6443 3.21807 13.5682C3.30492 13.1869 3.43919 12.7783 3.64322 12.3665C4.07102 11.5032 4.79096 10.6575 5.94781 10.0383C7.09284 9.42537 8.61552 9.06056 10.6203 9.06056C14.1757 9.06056 15.2958 7.91352 15.6857 7.13519C15.8073 6.89238 15.8795 6.64549 15.9192 6.41267C14.5906 6.00379 13.6248 4.76656 13.6248 3.30377ZM3.11355 15.59C2.54175 15.7058 2.11133 16.2113 2.11133 16.8173C2.11133 17.5089 2.67198 18.0695 3.36358 18.0695C4.05518 18.0695 4.61583 17.5089 4.61583 16.8173C4.61583 16.2643 4.25746 15.7951 3.76031 15.6292C3.13803 15.7478 3.13792 15.7472 3.13781 15.7466L3.13754 15.7451L3.13692 15.7418L3.13542 15.7336L3.13149 15.7111C3.12851 15.6934 3.12482 15.6703 3.12076 15.6423C3.11846 15.6265 3.11604 15.609 3.11355 15.59Z"
    />
</svg>
