<svg width="24" height="24" viewBox="0 0 24 24" fill="none" xmlns="http://www.w3.org/2000/svg">
  <path fill-rule="evenodd" clip-rule="evenodd"
    d="M19.5028 12C19.5028 12.34 19.4728 12.66 19.4328 12.98L21.5428 14.63C21.7328 14.78 21.7828 15.05 21.6628 15.27L19.6628 18.73C19.5728 18.89 19.4028 18.98 19.2328 18.98C19.1728 18.98 19.1128 18.97 19.0528 18.95L16.5628 17.95C16.0428 18.34 15.4828 18.68 14.8728 18.93L14.4928 21.58C14.4628 21.82 14.2528 22 14.0028 22H10.0028C9.75277 22 9.54277 21.82 9.51277 21.58L9.13277 18.93C8.52277 18.68 7.96277 18.35 7.44277 17.95L4.95277 18.95C4.90277 18.97 4.84277 18.98 4.78277 18.98C4.60277 18.98 4.43277 18.89 4.34277 18.73L2.34277 15.27C2.22277 15.05 2.27277 14.78 2.46277 14.63L4.57277 12.98C4.53277 12.66 4.50277 12.33 4.50277 12C4.50277 11.67 4.53277 11.34 4.57277 11.02L2.46277 9.37C2.27277 9.22 2.21277 8.95 2.34277 8.73L4.34277 5.27C4.43277 5.11 4.60277 5.02 4.77277 5.02C4.83277 5.02 4.89277 5.03 4.95277 5.05L7.44277 6.05C7.96277 5.66 8.52277 5.32 9.13277 5.07L9.51277 2.42C9.54277 2.18 9.75277 2 10.0028 2H14.0028C14.2528 2 14.4628 2.18 14.4928 2.42L14.8728 5.07C15.4828 5.32 16.0428 5.65 16.5628 6.05L19.0528 5.05C19.1028 5.03 19.1628 5.02 19.2228 5.02C19.4028 5.02 19.5728 5.11 19.6628 5.27L21.6628 8.73C21.7828 8.95 21.7328 9.22 21.5428 9.37L19.4328 11.02C19.4728 11.34 19.5028 11.66 19.5028 12ZM17.5028 12C17.5028 11.79 17.4928 11.58 17.4528 11.27L17.3128 10.14L18.2028 9.44L19.2728 8.59L18.5728 7.38L17.3028 7.89L16.2428 8.32L15.3328 7.62C14.9328 7.32 14.5328 7.09 14.1028 6.91L13.0428 6.48L12.8828 5.35L12.6928 4H11.3028L11.1028 5.35L10.9428 6.48L9.88277 6.91C9.47277 7.08 9.06277 7.32 8.63277 7.64L7.73277 8.32L6.69277 7.9L5.42277 7.39L4.72277 8.6L5.80277 9.44L6.69277 10.14L6.55277 11.27C6.52277 11.57 6.50277 11.8 6.50277 12C6.50277 12.2 6.52277 12.43 6.55277 12.74L6.69277 13.87L5.80277 14.57L4.72277 15.41L5.42277 16.62L6.69277 16.11L7.75277 15.68L8.66277 16.38C9.06277 16.68 9.46277 16.91 9.89277 17.09L10.9528 17.52L11.1128 18.65L11.3028 20H12.7028L12.9028 18.65L13.0628 17.52L14.1228 17.09C14.5328 16.92 14.9428 16.68 15.3728 16.36L16.2728 15.68L17.3128 16.1L18.5828 16.61L19.2828 15.4L18.2028 14.56L17.3128 13.86L17.4528 12.73C17.4828 12.43 17.5028 12.21 17.5028 12ZM12.0028 8C9.79277 8 8.00277 9.79 8.00277 12C8.00277 14.21 9.79277 16 12.0028 16C14.2128 16 16.0028 14.21 16.0028 12C16.0028 9.79 14.2128 8 12.0028 8ZM10.0028 12C10.0028 13.1 10.9028 14 12.0028 14C13.1028 14 14.0028 13.1 14.0028 12C14.0028 10.9 13.1028 10 12.0028 10C10.9028 10 10.0028 10.9 10.0028 12Z"
    />
</svg>
