<svg width="20" height="20" viewBox="0 0 20 20" fill="none" xmlns="http://www.w3.org/2000/svg">
  <path fill-rule="evenodd" clip-rule="evenodd"
    d="M17.5028 10C17.5028 10.34 17.4728 10.66 17.4328 10.98L19.5428 12.63C19.7328 12.78 19.7828 13.05 19.6628 13.27L17.6628 16.73C17.5728 16.89 17.4028 16.98 17.2328 16.98C17.1728 16.98 17.1128 16.97 17.0528 16.95L14.5628 15.95C14.0428 16.34 13.4828 16.68 12.8728 16.93L12.4928 19.58C12.4628 19.82 12.2528 20 12.0028 20H8.00277C7.75277 20 7.54277 19.82 7.51277 19.58L7.13277 16.93C6.52277 16.68 5.96277 16.35 5.44277 15.95L2.95277 16.95C2.90277 16.97 2.84277 16.98 2.78277 16.98C2.60277 16.98 2.43277 16.89 2.34277 16.73L0.342769 13.27C0.222769 13.05 0.272769 12.78 0.462769 12.63L2.57277 10.98C2.53277 10.66 2.50277 10.33 2.50277 10C2.50277 9.67 2.53277 9.34 2.57277 9.02L0.462769 7.37C0.272769 7.22 0.212769 6.95 0.342769 6.73L2.34277 3.27C2.43277 3.11 2.60277 3.02 2.77277 3.02C2.83277 3.02 2.89277 3.03 2.95277 3.05L5.44277 4.05C5.96277 3.66 6.52277 3.32 7.13277 3.07L7.51277 0.42C7.54277 0.18 7.75277 0 8.00277 0H12.0028C12.2528 0 12.4628 0.18 12.4928 0.42L12.8728 3.07C13.4828 3.32 14.0428 3.65 14.5628 4.05L17.0528 3.05C17.1028 3.03 17.1628 3.02 17.2228 3.02C17.4028 3.02 17.5728 3.11 17.6628 3.27L19.6628 6.73C19.7828 6.95 19.7328 7.22 19.5428 7.37L17.4328 9.02C17.4728 9.34 17.5028 9.66 17.5028 10ZM15.5028 10C15.5028 9.79 15.4928 9.58 15.4528 9.27L15.3128 8.14L16.2028 7.44L17.2728 6.59L16.5728 5.38L15.3028 5.89L14.2428 6.32L13.3328 5.62C12.9328 5.32 12.5328 5.09 12.1028 4.91L11.0428 4.48L10.8828 3.35L10.6928 2H9.30277L9.10277 3.35L8.94277 4.48L7.88277 4.91C7.47277 5.08 7.06277 5.32 6.63277 5.64L5.73277 6.32L4.69277 5.9L3.42277 5.39L2.72277 6.6L3.80277 7.44L4.69277 8.14L4.55277 9.27C4.52277 9.57 4.50277 9.8 4.50277 10C4.50277 10.2 4.52277 10.43 4.55277 10.74L4.69277 11.87L3.80277 12.57L2.72277 13.41L3.42277 14.62L4.69277 14.11L5.75277 13.68L6.66277 14.38C7.06277 14.68 7.46277 14.91 7.89277 15.09L8.95277 15.52L9.11277 16.65L9.30277 18H10.7028L10.9028 16.65L11.0628 15.52L12.1228 15.09C12.5328 14.92 12.9428 14.68 13.3728 14.36L14.2728 13.68L15.3128 14.1L16.5828 14.61L17.2828 13.4L16.2028 12.56L15.3128 11.86L15.4528 10.73C15.4828 10.43 15.5028 10.21 15.5028 10ZM10.0028 6C7.79277 6 6.00277 7.79 6.00277 10C6.00277 12.21 7.79277 14 10.0028 14C12.2128 14 14.0028 12.21 14.0028 10C14.0028 7.79 12.2128 6 10.0028 6ZM8.00277 10C8.00277 11.1 8.90277 12 10.0028 12C11.1028 12 12.0028 11.1 12.0028 10C12.0028 8.9 11.1028 8 10.0028 8C8.90277 8 8.00277 8.9 8.00277 10Z"
  />
</svg>
